<svg width="252" height="46" viewBox="0 0 252 46" fill="none" xmlns="http://www.w3.org/2000/svg">
<path d="M61.7715 15.5429V33.9429H57.5395V19.0126H49.2332V33.9429H45.0012V15.5429H61.7715ZM74.3498 19.5909C75.6641 19.5909 76.8557 19.8975 77.9247 20.5109C79.0112 21.1067 79.8611 21.9566 80.4744 23.0606C81.0877 24.1471 81.3944 25.4175 81.3944 26.872C81.3944 28.3265 81.0877 29.6057 80.4744 30.7097C79.8611 31.7962 79.0112 32.6461 77.9247 33.2594C76.8557 33.8553 75.6641 34.1532 74.3498 34.1532C72.5449 34.1532 71.1254 33.5836 70.0915 32.4446V39.0423H65.991V19.8012H69.9075V21.4309C70.9239 20.2042 72.4047 19.5909 74.3498 19.5909ZM73.6401 30.7886C74.6915 30.7886 75.5502 30.4381 76.2161 29.7372C76.8995 29.0187 77.2413 28.0636 77.2413 26.872C77.2413 25.6804 76.8995 24.7341 76.2161 24.0332C75.5502 23.3147 74.6915 22.9554 73.6401 22.9554C72.5887 22.9554 71.7213 23.3147 71.0378 24.0332C70.3719 24.7341 70.039 25.6804 70.039 26.872C70.039 28.0636 70.3719 29.0187 71.0378 29.7372C71.7213 30.4381 72.5887 30.7886 73.6401 30.7886ZM84.2684 19.8012H88.3427V28.2126L95.2295 19.8012H98.9884V33.9429H94.9141V25.5314L88.0535 33.9429H84.2684V19.8012ZM102.93 19.8012H107.004V25.3212H113.155V19.8012H117.256V33.9429H113.155V28.6594H107.004V33.9429H102.93V19.8012ZM133.062 23.1657H128.278V33.9429H124.204V23.1657H119.42V19.8012H133.062V23.1657ZM134.387 24.9006H141.826V28.1863H134.387V24.9006ZM164.296 30.4732V37.7543H160.354V33.9429H147.368V37.7543H143.426L143.452 30.4732H144.188C145.292 30.4381 146.072 29.632 146.527 28.0549C146.983 26.4777 147.263 24.2259 147.368 21.2994L147.579 15.5429H161.72V30.4732H164.296ZM151.127 21.6937C151.04 23.8842 150.856 25.7242 150.575 27.2137C150.295 28.6857 149.866 29.7722 149.287 30.4732H157.515V19.0126H151.206L151.127 21.6937ZM166.848 19.8012H170.922V28.2126L177.809 19.8012H181.568V33.9429H177.493V25.5314L170.633 33.9429H166.848V19.8012ZM194.555 26.5829C195.396 26.8457 196.044 27.2488 196.5 27.792C196.973 28.3353 197.21 28.9836 197.21 29.7372C197.21 30.6309 196.903 31.4194 196.29 32.1029C195.676 32.7688 194.835 33.2857 193.766 33.6537C192.697 34.0217 191.488 34.2057 190.139 34.2057C189.035 34.2057 187.948 34.0918 186.879 33.864C185.81 33.6362 184.82 33.2945 183.909 32.8389L185.013 29.9737C186.503 30.6922 188.15 31.0514 189.955 31.0514C190.919 31.0514 191.672 30.9113 192.215 30.6309C192.776 30.333 193.057 29.9212 193.057 29.3954C193.057 28.9398 192.864 28.5981 192.478 28.3703C192.093 28.125 191.532 28.0023 190.796 28.0023H187.905V25.4526H190.428C191.146 25.4526 191.698 25.3387 192.084 25.1109C192.469 24.8831 192.662 24.5501 192.662 24.112C192.662 23.6564 192.417 23.3059 191.926 23.0606C191.453 22.8153 190.77 22.6926 189.876 22.6926C188.509 22.6926 187.02 23.0168 185.407 23.6652L184.409 20.8263C186.371 19.9676 188.281 19.5383 190.139 19.5383C191.418 19.5383 192.557 19.696 193.556 20.0114C194.572 20.3269 195.37 20.7913 195.948 21.4046C196.526 22.0004 196.815 22.7013 196.815 23.5074C196.815 24.1733 196.614 24.7779 196.211 25.3212C195.808 25.8469 195.256 26.2674 194.555 26.5829ZM205.686 19.5909C207.877 19.5909 209.559 20.1166 210.733 21.168C211.907 22.2019 212.494 23.7703 212.494 25.8732V33.9429H208.656V32.1817C207.885 33.496 206.448 34.1532 204.346 34.1532C203.259 34.1532 202.313 33.9692 201.507 33.6012C200.718 33.2332 200.114 32.725 199.693 32.0766C199.272 31.4282 199.062 30.6922 199.062 29.8686C199.062 28.5543 199.553 27.5204 200.534 26.7669C201.533 26.0133 203.066 25.6366 205.134 25.6366H208.394C208.394 24.7429 208.122 24.0594 207.579 23.5863C207.036 23.0956 206.221 22.8503 205.134 22.8503C204.381 22.8503 203.636 22.973 202.9 23.2183C202.181 23.4461 201.568 23.7615 201.06 24.1646L199.588 21.2994C200.359 20.7562 201.279 20.3356 202.348 20.0377C203.434 19.7398 204.547 19.5909 205.686 19.5909ZM205.371 31.3932C206.072 31.3932 206.694 31.2354 207.237 30.92C207.78 30.5871 208.166 30.1052 208.394 29.4743V28.0286H205.581C203.899 28.0286 203.058 28.5806 203.058 29.6846C203.058 30.2103 203.259 30.6309 203.662 30.9463C204.083 31.2442 204.652 31.3932 205.371 31.3932ZM216.056 19.8012H220.131V28.2126L227.017 19.8012H230.776V33.9429H226.702V25.5314L219.841 33.9429H216.056V19.8012ZM223.153 18.2766C220.069 18.2766 218.518 16.9185 218.501 14.2023H221.182C221.2 14.8156 221.366 15.2975 221.681 15.648C222.014 15.981 222.496 16.1474 223.127 16.1474C223.758 16.1474 224.24 15.981 224.573 15.648C224.923 15.2975 225.099 14.8156 225.099 14.2023H227.832C227.815 16.9185 226.255 18.2766 223.153 18.2766ZM234.718 19.8012H238.792V25.3212H244.943V19.8012H249.044V33.9429H244.943V28.6594H238.792V33.9429H234.718V19.8012Z" fill="black"/>
<rect x="23.6572" y="11.8286" width="10.5143" height="10.5143" rx="1.31429" fill="#B542AC"/>
<rect x="23.6572" y="23.6572" width="10.5143" height="10.5143" rx="1.31429" fill="#3945AF"/>
<rect x="11.8286" y="23.6572" width="10.5143" height="10.5143" rx="1.31429" fill="#3794CC"/>
<rect x="11.8286" y="11.8286" width="10.5143" height="10.5143" rx="1.31429" fill="#B8ABCE"/>
<rect x="11.8286" width="10.5143" height="10.5143" rx="1.31429" fill="#E7B8D2"/>
<rect x="23.6572" width="10.5143" height="10.5143" rx="1.31429" fill="#E041AD"/>
<rect y="23.6572" width="10.5143" height="10.5143" rx="1.31429" fill="#58C2EB"/>
<rect y="11.8286" width="10.5143" height="10.5143" rx="1.31429" fill="#B9DCF3"/>
<rect width="10.5143" height="10.5143" rx="1.31429" fill="#F4F4F8"/>
</svg>
